<svg width="26" height="26" viewBox="0 0 26 26" fill="none" xmlns="http://www.w3.org/2000/svg">
<path d="M23.5625 4.0625H2.4375C1.98809 4.0625 1.625 4.42559 1.625 4.875V8.9375H24.375V4.875C24.375 4.42559 24.0119 4.0625 23.5625 4.0625ZM1.625 21.125C1.625 21.5744 1.98809 21.9375 2.4375 21.9375H23.5625C24.0119 21.9375 24.375 21.5744 24.375 21.125V11.1719H1.625V21.125ZM16.3262 16.4531C16.3262 16.3414 16.4176 16.25 16.5293 16.25H20.7188C20.8305 16.25 20.9219 16.3414 20.9219 16.4531V18.2812C20.9219 18.393 20.8305 18.4844 20.7188 18.4844H16.5293C16.4176 18.4844 16.3262 18.393 16.3262 18.2812V16.4531Z" fill="black"/>
</svg>
