<svg width="30" height="20" viewBox="0 0 30 20" fill="none" xmlns="http://www.w3.org/2000/svg">
<path fill-rule="evenodd" clip-rule="evenodd" d="M30 17.5C30 18.875 28.875 20 27.5 20H2.5C1.125 20 0 18.875 0 17.5V2.5C0 1.125 1.125 0 2.5 0H27.5C28.875 0 30 1.125 30 2.5V17.5Z" fill="#FFED00"/>
<path fill-rule="evenodd" clip-rule="evenodd" d="M9.76444 11.8235L16.2144 7.522L17.1929 8.175L11.7214 11.8225L14.9984 14.0085L16.7584 12.835L15.5389 12.02L18.0374 10.355L20.2354 11.823L14.9984 15.3125L9.76444 11.8235ZM18.2784 6.149L20.3414 4.7745V6.078L19.2569 6.802L18.2784 6.149ZM12.8039 11.8235L18.2774 8.1765L14.9969 5.991L13.2394 7.1655L14.4589 7.97L11.9584 9.638L9.76444 8.173L14.9979 4.6875L20.2349 8.1725L13.7824 12.4765L12.8039 11.8235ZM9.65894 13.9215L10.7429 13.198L11.7214 13.851L9.65894 15.225V13.9215Z" fill="#225198"/>
</svg>
