<svg width="30" height="20" viewBox="0 0 30 20" fill="none" xmlns="http://www.w3.org/2000/svg">
<path fill-rule="evenodd" clip-rule="evenodd" d="M30 17.5C30 18.875 28.875 20 27.5 20H2.5C1.125 20 0 18.875 0 17.5V2.5C0 1.125 1.125 0 2.5 0H27.5C28.875 0 30 1.125 30 2.5V17.5Z" fill="white"/>
<path opacity="0.6" d="M27.5 0H2.5C1.125 0 0 1.125 0 2.5V17.5C0 18.875 1.125 20 2.5 20H27.5C28.875 20 30 18.875 30 17.5V2.5C30 1.125 28.875 0 27.5 0ZM27.5 0.5C28.603 0.5 29.5 1.397 29.5 2.5V17.5C29.5 18.603 28.603 19.5 27.5 19.5H2.5C1.397 19.5 0.5 18.603 0.5 17.5V2.5C0.5 1.397 1.397 0.5 2.5 0.5H27.5Z" fill="#D0D0D0"/>
<path fill-rule="evenodd" clip-rule="evenodd" d="M7 5H7.988V15.0545H7V5ZM13.078 5H14.066V15.0545H13.078V5ZM18.1325 5H19.1205V15.0545H18.1325V5ZM20.143 5H21.131V15.0545H20.143V5ZM22.177 5H23.165V15.0545H22.177V5ZM15.0885 5H17.098V15.0545H15.0885V5ZM9.022 5H12.0425V15.0545H9.022V5Z" fill="black"/>
</svg>
