<svg width="53" height="53" viewBox="0 0 53 53" fill="none" xmlns="http://www.w3.org/2000/svg">
<path d="M46.3838 17.6114V13.25C46.3838 8.37841 42.422 4.41666 37.5505 4.41666H15.4671C10.5955 4.41666 6.63379 8.37841 6.63379 13.25V17.6622L6.46596 17.6711C5.90902 17.7113 5.38799 17.961 5.00775 18.3699C4.62751 18.7788 4.41629 19.3166 4.41663 19.875V24.2917C4.41663 24.8773 4.64929 25.439 5.06343 25.8532C5.47758 26.2673 6.03927 26.5 6.62496 26.5H6.63379V39.75C6.63379 41.3731 7.52375 42.7798 8.83329 43.5483V46.375C8.83329 46.9607 9.06596 47.5224 9.4801 47.9365C9.89424 48.3507 10.4559 48.5833 11.0416 48.5833H13.25C13.8356 48.5833 14.3973 48.3507 14.8115 47.9365C15.2256 47.5224 15.4583 46.9607 15.4583 46.375V44.1667H37.5416V46.375C37.5416 46.9607 37.7743 47.5224 38.1884 47.9365C38.6026 48.3507 39.1643 48.5833 39.75 48.5833H41.9583C42.544 48.5833 43.1057 48.3507 43.5198 47.9365C43.934 47.5224 44.1666 46.9607 44.1666 46.375V43.5572C44.838 43.1732 45.3964 42.6191 45.7856 41.9508C46.1748 41.2825 46.3811 40.5234 46.3838 39.75V26.5C46.9695 26.5 47.5312 26.2673 47.9453 25.8532C48.3595 25.439 48.5921 24.8773 48.5921 24.2917V20.0119C48.6176 19.6692 48.5631 19.3252 48.4331 19.0071C47.9848 17.9317 47.0308 17.6733 46.3838 17.6114ZM41.9715 39.75H11.0505V28.7083H41.9693L41.9715 39.75ZM24.3005 15.4583V24.2917H11.0505V15.4583H24.3005ZM41.9671 15.4583V24.2917H28.7171V15.4583H41.9671ZM15.4671 8.83332H37.5505C39.1758 8.83332 40.5869 9.7277 41.3532 11.0417H11.6644C12.4307 9.7277 13.8418 8.83332 15.4671 8.83332Z" fill="black"/>
<path d="M16.5625 37.5417C18.3919 37.5417 19.875 36.0586 19.875 34.2292C19.875 32.3997 18.3919 30.9167 16.5625 30.9167C14.7331 30.9167 13.25 32.3997 13.25 34.2292C13.25 36.0586 14.7331 37.5417 16.5625 37.5417Z" fill="black"/>
<path d="M36.4375 37.5417C38.2669 37.5417 39.75 36.0586 39.75 34.2292C39.75 32.3997 38.2669 30.9167 36.4375 30.9167C34.6081 30.9167 33.125 32.3997 33.125 34.2292C33.125 36.0586 34.6081 37.5417 36.4375 37.5417Z" fill="black"/>
</svg>
