<svg width="30" height="20" viewBox="0 0 30 20" fill="none" xmlns="http://www.w3.org/2000/svg">
<path fill-rule="evenodd" clip-rule="evenodd" d="M30 17.5C30 18.875 28.875 20 27.5 20H2.5C1.125 20 0 18.875 0 17.5V2.5C0 1.125 1.125 0 2.5 0H27.5C28.875 0 30 1.125 30 2.5V17.5Z" fill="#116BB6"/>
<path d="M10.8149 9.17848L10.2564 10.57H11.0289L10.8174 9.17248L10.8149 9.17848ZM7.85742 12.3725L10.1479 7.65698H11.8794L12.8454 12.3725H11.3249L11.2134 11.744H9.73842L9.39892 12.3725H7.85742ZM13.5644 12.3725L14.2279 7.65698H15.7599L15.0964 12.3725H13.5644ZM23.7529 9.17248L23.1924 10.57H23.9649L23.7529 9.17248ZM20.7924 12.3725L23.0829 7.65698H24.8139L25.7799 12.3725H24.2594L24.1479 11.744H22.6729L22.3334 12.3725H20.7924ZM17.4059 10.1675H19.3254L20.6409 12.346H18.7214L17.4059 10.1675Z" fill="white"/>
<path d="M17.6056 9.83306H19.5896L21.3126 7.66406H19.3286L17.6056 9.83306ZM15.6216 12.3591H17.6056L19.3286 10.1631H17.3446L15.6216 12.3591Z" fill="#F29A25"/>
<path d="M16.3369 7.63746H18.1889L19.4574 9.83296H17.6054L16.3369 7.63746ZM7.90289 7.82596L7.75539 9.21296C7.19089 8.43396 5.88239 8.97146 5.77939 9.94196C5.64889 11.1735 6.90839 11.461 7.59389 10.7355L7.44589 12.1255C7.24139 12.226 7.04139 12.304 6.84389 12.357C6.65189 12.409 6.45439 12.4375 6.25539 12.442C6.00989 12.447 5.78739 12.4215 5.58689 12.365C5.39139 12.312 5.20739 12.223 5.04489 12.1025C4.73539 11.8765 4.51189 11.5885 4.37389 11.2385C4.23639 10.8875 4.19089 10.491 4.23789 10.0485C4.27589 9.69246 4.36539 9.36796 4.50839 9.07396C4.64989 8.77946 4.84639 8.51246 5.09589 8.27046C5.33189 8.03946 5.58939 7.86496 5.86739 7.74646C6.14439 7.62896 6.44739 7.56646 6.77439 7.55946C6.96739 7.55496 7.15989 7.57496 7.34739 7.61996C7.53439 7.66346 7.71889 7.73346 7.90289 7.82596Z" fill="white"/>
</svg>
