<svg width="53" height="53" viewBox="0 0 53 53" fill="none" xmlns="http://www.w3.org/2000/svg">
<path d="M41.9583 48.5834H11.0417C9.87029 48.5834 8.7469 48.118 7.91861 47.2897C7.09033 46.4615 6.625 45.3381 6.625 44.1667V13.25C6.625 12.0786 7.09033 10.9553 7.91861 10.127C8.7469 9.29868 9.87029 8.83335 11.0417 8.83335H15.4583V4.41669H19.875V8.83335H33.125V4.41669H37.5417V8.83335H41.9583C43.1297 8.83335 44.2531 9.29868 45.0814 10.127C45.9097 10.9553 46.375 12.0786 46.375 13.25V44.1667C46.375 45.3381 45.9097 46.4615 45.0814 47.2897C44.2531 48.118 43.1297 48.5834 41.9583 48.5834ZM11.0417 22.0834V44.1667H41.9583V22.0834H11.0417ZM11.0417 13.25V17.6667H41.9583V13.25H11.0417ZM24.2917 40.6643L16.1054 32.478L19.228 29.3554L24.2917 34.4191L33.772 24.9387L36.8946 28.0613L24.2917 40.6621V40.6643Z" fill="black"/>
</svg>
