<svg width="30" height="20" viewBox="0 0 30 20" fill="none" xmlns="http://www.w3.org/2000/svg">
<path fill-rule="evenodd" clip-rule="evenodd" d="M30 17.5C30 18.875 28.875 20 27.5 20H2.5C1.125 20 0 18.875 0 17.5V2.5C0 1.125 1.125 0 2.5 0H27.5C28.875 0 30 1.125 30 2.5V17.5Z" fill="black"/>
<path d="M24.6549 10.8135C24.5249 11.45 23.9619 11.929 23.2874 11.929C23.1369 11.929 22.9874 11.905 22.8444 11.857L22.5344 12.783C22.7769 12.864 23.0314 12.9055 23.2874 12.905C24.4339 12.905 25.3909 12.091 25.6119 11.009L24.6549 10.8135ZM21.7159 12.3105L22.3624 11.579C22.0734 11.3235 21.8919 10.95 21.8919 10.5335C21.8919 10.1175 22.0739 9.74449 22.3624 9.48899L21.7154 8.75749C21.2249 9.19199 20.9154 9.82699 20.9154 10.5335C20.9149 11.2405 21.2249 11.876 21.7159 12.3105ZM22.8449 9.20999C22.9839 9.16349 23.1324 9.13849 23.2874 9.13849C23.9624 9.13849 24.5259 9.61799 24.6549 10.2555L25.6119 10.0605C25.3924 8.97749 24.4349 8.16249 23.2874 8.16249C23.0319 8.16199 22.7779 8.20349 22.5359 8.28399C22.5354 8.28349 22.8449 9.20999 22.8449 9.20999ZM19.9804 7.09399V11.673L20.7749 12.0025L20.3989 12.9055L19.6129 12.579C19.4364 12.5025 19.3169 12.3855 19.2259 12.254C19.1389 12.119 19.0739 11.9345 19.0739 11.686V7.09449L19.9804 7.09399ZM16.3604 8.16299C15.0519 8.14299 13.9739 9.18849 13.9539 10.4975C13.9464 10.9885 14.0879 11.447 14.3374 11.8285L18.6324 9.99249C18.3909 8.95799 17.4709 8.17999 16.3604 8.16299ZM14.9374 10.681C14.9314 10.626 14.9274 10.57 14.9289 10.513C14.9414 9.74149 15.5759 9.12599 16.3469 9.13849C16.7664 9.14399 17.1389 9.33649 17.3909 9.63349L14.9374 10.681ZM17.3004 11.531C17.0414 11.783 16.6904 11.936 16.3029 11.9305C16.0374 11.926 15.7909 11.8465 15.5819 11.714L15.0629 12.541C15.4299 12.7735 15.8544 12.8995 16.2889 12.9055C16.9464 12.9155 17.5459 12.657 17.9814 12.2305L17.3004 11.531Z" fill="white"/>
<path fill-rule="evenodd" clip-rule="evenodd" d="M10.514 10.459C10.3015 11.502 9.37953 12.2865 8.27403 12.2865C8.02753 12.2865 7.78253 12.247 7.54853 12.169L7.04053 13.6865C7.43803 13.8195 7.85453 13.887 8.27403 13.8865C10.153 13.8865 11.7205 12.553 12.0815 10.7805L10.514 10.459Z" fill="#ED412F"/>
<path fill-rule="evenodd" clip-rule="evenodd" d="M5.69893 12.9106L6.75893 11.7121C6.28593 11.2931 5.98743 10.6816 5.98743 9.99959C5.98743 9.31809 6.28593 8.70659 6.75893 8.28809L5.69843 7.09009C4.89493 7.80209 4.38843 8.84159 4.38843 10.0001C4.38793 11.1586 4.89493 12.1986 5.69893 12.9106Z" fill="#1AA5DF"/>
<path fill-rule="evenodd" clip-rule="evenodd" d="M7.5485 7.83102C7.782 7.75302 8.027 7.71352 8.2735 7.71352C9.38 7.71352 10.3025 8.49952 10.5145 9.54302L12.082 9.22352C11.7225 7.44952 10.154 6.11402 8.2735 6.11402C7.855 6.11352 7.439 6.18102 7.0415 6.31352L7.5485 7.83102Z" fill="#FFCA32"/>
</svg>
