<svg width="26" height="26" viewBox="0 0 26 26" fill="none" xmlns="http://www.w3.org/2000/svg">
<g clip-path="url(#clip0_603_94)">
<path d="M25.1817 9.93737C25.3721 9.786 25.6553 9.9276 25.6553 10.1669V20.1522C25.6553 21.4462 24.6055 22.496 23.3116 22.496H2.99905C1.70511 22.496 0.655304 21.4462 0.655304 20.1522V10.1717C0.655304 9.9276 0.933624 9.79089 1.12894 9.94225C2.22269 10.7919 3.67288 11.871 8.65335 15.4891C9.68362 16.2411 11.4219 17.8231 13.1553 17.8133C14.8985 17.828 16.6709 16.2118 17.6621 15.4891C22.6426 11.871 24.0879 10.787 25.1817 9.93737ZM13.1553 16.246C14.2881 16.2655 15.919 14.8202 16.7393 14.2245C23.2188 9.52233 23.7119 9.11217 25.2061 7.9403C25.4893 7.72057 25.6553 7.37878 25.6553 7.01745V6.08971C25.6553 4.79577 24.6055 3.74596 23.3116 3.74596H2.99905C1.70511 3.74596 0.655304 4.79577 0.655304 6.08971V7.01745C0.655304 7.37878 0.82132 7.71569 1.10452 7.9403C2.59866 9.10729 3.09183 9.52233 9.57132 14.2245C10.3916 14.8202 12.0225 16.2655 13.1553 16.246Z" fill="black"/>
</g>
<defs>
<clipPath id="clip0_603_94">
<rect width="25" height="25" fill="white" transform="translate(0.655304 0.620964)"/>
</clipPath>
</defs>
</svg>
