<svg width="30" height="20" viewBox="0 0 30 20" fill="none" xmlns="http://www.w3.org/2000/svg">
<path fill-rule="evenodd" clip-rule="evenodd" d="M30 17.5C30 18.875 28.875 20 27.5 20H2.5C1.125 20 0 18.875 0 17.5V2.5C0 1.125 1.125 0 2.5 0H27.5C28.875 0 30 1.125 30 2.5V17.5Z" fill="#BE232C"/>
<path d="M8.10744 8.47493L8.19444 8.47543L8.26344 8.45193L8.33244 8.42843L8.39344 8.36643L8.45444 8.30443L8.48644 8.22193L8.51844 8.13943L8.51944 8.01793L8.52044 7.89643L8.49194 7.84893L8.46344 7.80143L8.41344 7.77043L8.36344 7.73943H8.25594H8.14844L8.07494 7.77243L8.00144 7.80543L7.95894 7.85093L7.91644 7.89643L7.88294 7.97493L7.84944 8.05343L7.84294 8.17593L7.83644 8.29843L7.86744 8.35943L7.89844 8.42043L7.95844 8.44793L8.01844 8.47493H8.10744ZM21.9594 11.9679H22.2719V11.8724V11.7769L22.3079 11.5399C22.3279 11.4094 22.3604 11.2029 22.3804 11.0809C22.4004 10.9589 22.4254 10.8044 22.4364 10.7374C22.4469 10.6704 22.4749 10.5254 22.4984 10.4154C22.5219 10.3054 22.5514 10.1859 22.5639 10.1504C22.5764 10.1149 22.5864 10.0779 22.5869 10.0679C22.5869 10.0579 22.6139 9.99343 22.6459 9.92493L22.7049 9.80043L22.7829 9.69693L22.8609 9.59343L22.9459 9.52943C22.9929 9.49443 23.0679 9.44743 23.1134 9.42543L23.1954 9.38543L23.3744 9.38643L23.5534 9.38743L23.6239 9.40993L23.6944 9.43243L23.7064 9.42493L23.7184 9.41743L23.7189 9.37193C23.7194 9.34693 23.7344 9.25343 23.7529 9.16443L23.7864 9.00243L23.7489 8.98793C23.7284 8.97993 23.6789 8.96293 23.6399 8.95043L23.5684 8.92793L23.4394 8.92843L23.3104 8.92893L23.2054 8.96593L23.1004 9.00293L23.0214 9.05043L22.9424 9.09793L22.8399 9.20543L22.7374 9.31293L22.6824 9.39643C22.6519 9.44243 22.6254 9.47743 22.6229 9.47493C22.6204 9.47243 22.6369 9.37693 22.6594 9.26293C22.6819 9.14893 22.7004 9.04093 22.7009 9.02293L22.7014 8.99093H22.4364H22.1714V8.99993C22.1714 9.00493 22.1584 9.09693 22.1419 9.20393C22.1259 9.31093 22.0934 9.51793 22.0699 9.66343C22.0464 9.80893 22.0079 10.0444 21.9844 10.1859C21.9609 10.3274 21.9254 10.5304 21.9054 10.6369C21.8854 10.7434 21.8504 10.9299 21.8269 11.0519C21.8034 11.1739 21.7654 11.3704 21.7419 11.4884C21.7184 11.6064 21.6874 11.7629 21.6729 11.8354L21.6464 11.9679H21.9594ZM14.7039 11.9679H15.0094L15.0184 11.8384C15.0234 11.7674 15.0409 11.6239 15.0569 11.5199C15.0729 11.4159 15.1059 11.2084 15.1299 11.0589C15.1539 10.9094 15.1989 10.6604 15.2299 10.5054C15.2609 10.3504 15.2954 10.1969 15.3069 10.1634C15.3184 10.1304 15.3284 10.0939 15.3284 10.0834C15.3284 10.0729 15.3514 10.0139 15.3794 9.95293C15.4074 9.89193 15.4599 9.79843 15.4959 9.74543L15.5609 9.64843L15.6484 9.56743L15.7359 9.48643L15.8434 9.43493L15.9509 9.38343L16.1154 9.38443L16.2799 9.38543L16.3609 9.40943C16.4054 9.42293 16.4459 9.43343 16.4504 9.43343C16.4549 9.43343 16.4589 9.41843 16.4589 9.39943C16.4589 9.38043 16.4749 9.28643 16.4949 9.18993C16.5149 9.09343 16.5309 9.00993 16.5309 9.00493C16.5309 8.99993 16.4844 8.98143 16.4269 8.96443C16.3699 8.94693 16.2909 8.92893 16.2514 8.92393L16.1799 8.91493L16.0869 8.93143C16.0359 8.94043 15.9594 8.96043 15.9179 8.97593C15.8759 8.99143 15.8069 9.02593 15.7644 9.05343C15.7219 9.08093 15.6554 9.13393 15.6174 9.17143C15.5789 9.20893 15.5144 9.28493 15.4739 9.33993C15.4334 9.39493 15.3909 9.45293 15.3799 9.46893L15.3594 9.49743L15.3719 9.43993C15.3789 9.40843 15.3979 9.30543 15.4144 9.21093C15.4309 9.11643 15.4479 9.02793 15.4519 9.01393L15.4594 8.98893H15.1864H14.9134V9.02343C14.9134 9.04243 14.8974 9.15693 14.8774 9.27743C14.8579 9.39843 14.8254 9.59993 14.8054 9.72593C14.7854 9.85193 14.7499 10.0709 14.7264 10.2124C14.7029 10.3539 14.6674 10.5569 14.6474 10.6634C14.6274 10.7699 14.5919 10.9564 14.5684 11.0784C14.5449 11.2004 14.5059 11.3999 14.4819 11.5224C14.4579 11.6444 14.4289 11.7884 14.4179 11.8429C14.4069 11.8969 14.3974 11.9469 14.3974 11.9539V11.9664L14.7039 11.9679ZM7.50194 11.9679H7.80994L7.81844 11.9454C7.82344 11.9329 7.82694 11.9004 7.82694 11.8729C7.82694 11.8454 7.84644 11.7024 7.86994 11.5554C7.89344 11.4084 7.93294 11.1689 7.95694 11.0234C7.98094 10.8779 8.01694 10.6654 8.03594 10.5509C8.05544 10.4369 8.08994 10.2469 8.11294 10.1284C8.13594 10.0104 8.17094 9.82693 8.19094 9.72043C8.21094 9.61393 8.24994 9.41193 8.27844 9.27093C8.30644 9.12993 8.33294 9.00893 8.33694 9.00243L8.34494 8.98993L8.03344 8.99393L7.72194 8.99793L7.69594 9.18393C7.68144 9.28643 7.65044 9.48943 7.62644 9.63493C7.60244 9.78043 7.56644 10.0029 7.54644 10.1289C7.52644 10.2549 7.49094 10.4579 7.46794 10.5799C7.44494 10.7019 7.40994 10.8889 7.38994 10.9949C7.36994 11.1014 7.33394 11.2879 7.31044 11.4099C7.28644 11.5319 7.25444 11.6929 7.23944 11.7679C7.22444 11.8429 7.20794 11.9184 7.20294 11.9359L7.19444 11.9679H7.50194ZM3.65094 11.9679H3.99894L4.02394 11.8139C4.03744 11.7294 4.06444 11.5664 4.08344 11.4524C4.10244 11.3384 4.13794 11.1254 4.16194 10.9799C4.18594 10.8344 4.22244 10.6184 4.24294 10.5004C4.26344 10.3824 4.29544 10.1989 4.31444 10.0934C4.33344 9.98743 4.35244 9.89743 4.35694 9.89293L4.36494 9.88493H5.30044H6.23594L6.24644 9.89543L6.25694 9.90593L6.24094 9.98843C6.23194 10.0339 6.20544 10.1739 6.18244 10.2999C6.15894 10.4259 6.11994 10.6384 6.09544 10.7724C6.07094 10.9064 6.03544 11.0964 6.01644 11.1949C5.99744 11.2934 5.95944 11.4994 5.93144 11.6529C5.90344 11.8064 5.88094 11.9399 5.88094 11.9499V11.9679H6.23044H6.57994L6.59544 11.8784C6.60394 11.8294 6.61744 11.7404 6.62594 11.6814C6.63444 11.6224 6.65394 11.4969 6.66994 11.4024C6.68594 11.3079 6.71794 11.1209 6.74094 10.9874C6.76394 10.8539 6.80244 10.6249 6.82694 10.4794C6.85094 10.3339 6.88694 10.1214 6.90644 10.0069C6.92594 9.89243 6.96094 9.69943 6.98394 9.57743C7.00694 9.45543 7.04544 9.24943 7.06944 9.11943C7.09344 8.98943 7.12944 8.79293 7.14894 8.68293C7.16894 8.57293 7.20494 8.37293 7.22944 8.23893C7.25394 8.10493 7.28494 7.94893 7.29794 7.89193L7.32194 7.78793H6.96844H6.61494L6.60544 7.85593C6.59994 7.89343 6.58294 7.99793 6.56744 8.08843C6.55194 8.17893 6.52344 8.33993 6.50444 8.44643C6.48544 8.55293 6.45044 8.75543 6.42694 8.89743C6.40344 9.03893 6.37344 9.22693 6.36044 9.31443L6.33644 9.47343L5.81744 9.48393L5.29844 9.49443L4.86344 9.48393C4.62444 9.47843 4.42744 9.47243 4.42544 9.47093C4.42394 9.46943 4.43194 9.41393 4.44344 9.34743C4.45494 9.28093 4.47694 9.16493 4.49194 9.09043C4.50694 9.01593 4.53594 8.86743 4.55594 8.76093C4.57594 8.65443 4.59844 8.52243 4.60644 8.46743C4.61444 8.41243 4.63044 8.32043 4.64244 8.26343C4.65444 8.20643 4.67744 8.08593 4.69294 7.99643C4.70894 7.90643 4.72544 7.82293 4.73044 7.81043L4.73894 7.78793H4.38844H4.03744L4.01494 7.91343C4.00244 7.98243 3.98594 8.08043 3.97844 8.13193C3.97094 8.18343 3.94444 8.34743 3.92044 8.49693C3.89644 8.64643 3.86044 8.86893 3.84144 8.99093C3.82244 9.11293 3.78644 9.33543 3.76294 9.48493C3.73944 9.63443 3.69994 9.86643 3.67544 10.0004C3.65094 10.1344 3.61594 10.3244 3.59744 10.4229C3.57894 10.5214 3.54344 10.7079 3.51844 10.8379C3.49344 10.9679 3.45744 11.1514 3.43794 11.2459C3.41844 11.3404 3.39694 11.4499 3.39044 11.4894C3.38344 11.5289 3.36144 11.6424 3.34144 11.7419C3.32094 11.8414 3.30444 11.9329 3.30444 11.9459V11.9694H3.65144V11.9679H3.65094ZM24.7199 11.6314L24.6119 11.6369L24.5389 11.6239C24.4989 11.6169 24.4344 11.5974 24.3964 11.5809L24.3269 11.5509L24.2684 11.5029L24.2099 11.4549L24.1664 11.3714L24.1229 11.2879L24.1029 11.1949L24.0829 11.1019L24.0844 10.9159L24.0859 10.7299L24.1089 10.5654L24.1319 10.4009L24.1679 10.2864C24.1874 10.2234 24.2039 10.1639 24.2039 10.1544C24.2039 10.1449 24.2234 10.0934 24.2474 10.0399C24.2709 9.98643 24.3109 9.90443 24.3354 9.85693C24.3599 9.80993 24.4064 9.73593 24.4379 9.69343C24.4694 9.65043 24.5259 9.58643 24.5634 9.55043C24.6009 9.51443 24.6599 9.46743 24.6954 9.44543L24.7594 9.40593L24.8719 9.36693L24.9844 9.32793H25.2204H25.4564L25.5924 9.36543C25.6674 9.38643 25.7464 9.41043 25.7689 9.41893L25.8094 9.43443L25.8014 9.47393C25.7969 9.49543 25.7799 9.59043 25.7634 9.68493C25.7469 9.77943 25.7144 9.95993 25.6914 10.0859C25.6684 10.2119 25.6329 10.4019 25.6124 10.5084C25.5919 10.6149 25.5624 10.7499 25.5469 10.8089C25.5314 10.8679 25.5089 10.9499 25.4979 10.9904C25.4864 11.0314 25.4594 11.1024 25.4379 11.1479C25.4164 11.1934 25.3784 11.2599 25.3534 11.2954C25.3284 11.3309 25.2869 11.3799 25.2604 11.4044C25.2339 11.4289 25.1769 11.4724 25.1339 11.5014L25.0554 11.5539L24.9414 11.5899L24.8274 11.6259L24.7199 11.6314ZM24.4764 12.0379L24.6124 12.0394L24.7414 12.0184C24.8124 12.0069 24.9024 11.9884 24.9419 11.9774C24.9814 11.9664 25.0519 11.9374 25.0994 11.9129L25.1854 11.8689L25.2594 11.8039L25.3334 11.7389L25.4114 11.6349C25.4544 11.5779 25.4929 11.5214 25.4974 11.5094L25.5059 11.4879L25.4989 11.5594C25.4949 11.5989 25.4859 11.6634 25.4789 11.7024C25.4719 11.7419 25.4619 11.8174 25.4569 11.8704L25.4474 11.9669H25.7284H26.0094V11.8704V11.7739L26.0524 11.4089C26.0759 11.2079 26.1109 10.9409 26.1299 10.8149C26.1489 10.6889 26.1784 10.5084 26.1949 10.4139C26.2119 10.3194 26.2414 10.1489 26.2614 10.0344C26.2809 9.92043 26.3164 9.72043 26.3399 9.59043C26.3634 9.46043 26.4014 9.25443 26.4239 9.13243C26.4464 9.01043 26.4819 8.82043 26.5019 8.70993C26.5224 8.59993 26.5589 8.40643 26.5829 8.28043C26.6069 8.15443 26.6424 7.97743 26.6614 7.88693C26.6804 7.79643 26.6959 7.71743 26.6959 7.71143V7.70093H26.3894H26.0829L26.0739 7.79043C26.0689 7.83943 26.0454 8.00243 26.0219 8.15193C25.9984 8.30143 25.9594 8.53993 25.9359 8.68143C25.9124 8.82293 25.8899 8.96043 25.8854 8.98693L25.8779 9.03443L25.8539 9.02393C25.8404 9.01843 25.7684 8.99843 25.6939 8.97943L25.5579 8.94543L25.3719 8.93093L25.1859 8.91643L25.0284 8.93093L24.8709 8.94543L24.7279 8.98143L24.5849 9.01743L24.4489 9.08393L24.3129 9.15043L24.2129 9.22443L24.1129 9.29843L24.0264 9.39143C23.9789 9.44243 23.9099 9.52693 23.8734 9.57893L23.8069 9.67393L23.7289 9.83593C23.6859 9.92493 23.6339 10.0429 23.6134 10.0979C23.5929 10.1529 23.5559 10.2754 23.5319 10.3694L23.4879 10.5409L23.4664 10.7634L23.4449 10.9859L23.4609 11.1649L23.4769 11.3439L23.4959 11.4084C23.5064 11.4439 23.5289 11.5069 23.5454 11.5489L23.5754 11.6249L23.6304 11.6994L23.6854 11.7739L23.7484 11.8254L23.8114 11.8769L23.8974 11.9194C23.9444 11.9429 24.0239 11.9734 24.0734 11.9869C24.1229 12.0004 24.2034 12.0169 24.2524 12.0234C24.3004 12.0309 24.4009 12.0369 24.4764 12.0379ZM19.8164 11.6324L19.7019 11.6384L19.6259 11.6189C19.5844 11.6084 19.5209 11.5844 19.4854 11.5664L19.4204 11.5329L19.3849 11.4909C19.3654 11.4679 19.3359 11.4224 19.3189 11.3899L19.2884 11.3309L19.2824 11.1934L19.2764 11.0559L19.3009 10.9724C19.3144 10.9264 19.3454 10.8469 19.3704 10.7954L19.4159 10.7019L19.5029 10.6159L19.5899 10.5299L19.6819 10.4854L19.7739 10.4409L19.8884 10.4139L20.0029 10.3869H20.3609H20.7189L20.7414 10.3964L20.7639 10.4059L20.7449 10.5184C20.7344 10.5804 20.7094 10.6919 20.6894 10.7669C20.6694 10.8419 20.6339 10.9519 20.6109 11.0114C20.5879 11.0709 20.5684 11.1239 20.5684 11.1284C20.5684 11.1334 20.5449 11.1764 20.5159 11.2249L20.4634 11.3129L20.3774 11.3979C20.3304 11.4449 20.2864 11.4829 20.2799 11.4829C20.2734 11.4829 20.2444 11.4989 20.2154 11.5189L20.1624 11.5549L20.0464 11.5914L19.9304 11.6279L19.8164 11.6324ZM19.6379 12.0329L19.8314 12.0274L19.9529 11.9964L20.0744 11.9654L20.1529 11.9284C20.1964 11.9079 20.2669 11.8674 20.3104 11.8384C20.3539 11.8094 20.4209 11.7544 20.4594 11.7164C20.4979 11.6784 20.5554 11.6129 20.5869 11.5714C20.6184 11.5299 20.6459 11.4979 20.6479 11.4999C20.6504 11.5024 20.6429 11.5684 20.6319 11.6469C20.6209 11.7254 20.6114 11.8299 20.6114 11.8794L20.6109 11.9689H20.8734H21.1359L21.1439 11.7649L21.1519 11.5609L21.1894 11.2959C21.2099 11.1504 21.2434 10.9344 21.2634 10.8164C21.2834 10.6984 21.3184 10.4984 21.3409 10.3724C21.3634 10.2464 21.3994 10.0499 21.4204 9.93593L21.4589 9.72843L21.4604 9.54893L21.4619 9.36943L21.4214 9.28643L21.3809 9.20343L21.3259 9.15043L21.2709 9.09743L21.1804 9.05193L21.0899 9.00643L20.9554 8.97643L20.8209 8.94643L20.6359 8.93243L20.4509 8.91843L20.2124 8.93343C20.0814 8.94143 19.8964 8.95743 19.8019 8.96893L19.6299 8.98993L19.5129 8.99043L19.3959 8.99093L19.3789 9.07343C19.3694 9.11893 19.3434 9.22643 19.3209 9.31243C19.2984 9.39843 19.2824 9.47143 19.2849 9.47393C19.2874 9.47643 19.3499 9.46243 19.4239 9.44243C19.4979 9.42243 19.6549 9.38993 19.7734 9.36943L19.9879 9.33293L20.1814 9.32493L20.3749 9.31693L20.4994 9.33893L20.6239 9.36093L20.7069 9.40193L20.7899 9.44293L20.8364 9.51243L20.8829 9.58193L20.8824 9.69143L20.8819 9.80093L20.8574 9.92093L20.8329 10.0409L20.3179 10.0429L19.8029 10.0449L19.6344 10.0909C19.5419 10.1164 19.4389 10.1499 19.4064 10.1659C19.3734 10.1819 19.3409 10.1949 19.3334 10.1949C19.3259 10.1949 19.2709 10.2254 19.2109 10.2629L19.1014 10.3309L19.0154 10.4169C18.9679 10.4644 18.9074 10.5349 18.8809 10.5744C18.8544 10.6139 18.8109 10.6959 18.7849 10.7574L18.7374 10.8684L18.7154 10.9934L18.6934 11.1184V11.2494V11.3804L18.7144 11.4894L18.7354 11.5984L18.7744 11.6694C18.7959 11.7084 18.8349 11.7659 18.8614 11.7969L18.9094 11.8534L18.9949 11.9054L19.0804 11.9574L19.1784 11.9849C19.2324 12.0004 19.3144 12.0184 19.3609 12.0259L19.4454 12.0394L19.6379 12.0329ZM17.2824 12.0379L17.4399 12.0399L17.6189 12.0189C17.7174 12.0074 17.8484 11.9879 17.9099 11.9759C17.9714 11.9639 18.0714 11.9404 18.1319 11.9234C18.1924 11.9064 18.2469 11.8879 18.2534 11.8824C18.2599 11.8769 18.2769 11.8119 18.2914 11.7379C18.3059 11.6639 18.3239 11.5649 18.3319 11.5174C18.3399 11.4704 18.3439 11.4289 18.3409 11.4259C18.3379 11.4229 18.3274 11.4269 18.3174 11.4349C18.3074 11.4429 18.2369 11.4724 18.1614 11.5004L18.0234 11.5514L17.8269 11.5894L17.6304 11.6274L17.4634 11.6219L17.2964 11.6164L17.2014 11.5834L17.1064 11.5504L17.0329 11.4864L16.9599 11.4224L16.9114 11.3339L16.8629 11.2454L16.8399 11.1269L16.8169 11.0084V10.8549V10.7014L16.8449 10.5154L16.8729 10.3294L16.9029 10.2294C16.9194 10.1744 16.9379 10.1099 16.9439 10.0864C16.9504 10.0629 16.9764 9.99493 17.0024 9.93593C17.0284 9.87693 17.0744 9.78543 17.1049 9.73293L17.1604 9.63743L17.2284 9.56693L17.2964 9.49643L17.3684 9.45193L17.4404 9.40743L17.5329 9.37893C17.5839 9.36343 17.6739 9.34293 17.7329 9.33393L17.8404 9.31743L17.9979 9.32543L18.1554 9.33343L18.3414 9.37043L18.5274 9.40793L18.6029 9.43593C18.6444 9.45143 18.6804 9.46393 18.6824 9.46393C18.6844 9.46393 18.6944 9.41093 18.7044 9.34593C18.7144 9.28093 18.7319 9.17393 18.7439 9.10843C18.7554 9.04293 18.7624 8.98643 18.7589 8.98293C18.7554 8.97943 18.6994 8.97043 18.6344 8.96343C18.5694 8.95643 18.3929 8.94293 18.2424 8.93443L17.9684 8.91893L17.7749 8.93393L17.5814 8.94893L17.4384 8.97893L17.2954 9.00893L17.2034 9.04593C17.1529 9.06643 17.0784 9.10293 17.0384 9.12743C16.9984 9.15193 16.9474 9.18493 16.9249 9.20043C16.9024 9.21593 16.8349 9.27743 16.7749 9.33693L16.6654 9.44493L16.6044 9.53443C16.5709 9.58393 16.5124 9.68643 16.4749 9.76293L16.4069 9.90193L16.3544 10.0524C16.3254 10.1349 16.2854 10.2704 16.2654 10.3529L16.2284 10.5034L16.2149 10.6394L16.2014 10.7754V10.9544V11.1334L16.2149 11.2374L16.2284 11.3414L16.2714 11.4484L16.3144 11.5554L16.3639 11.6329L16.4134 11.7104L16.4924 11.7879L16.5714 11.8654L16.6549 11.9094L16.7384 11.9534L16.8479 11.9839C16.9079 12.0004 16.9949 12.0199 17.0414 12.0264C17.0879 12.0309 17.1964 12.0369 17.2824 12.0379ZM12.9999 10.0214C12.6034 10.0214 12.2794 10.0184 12.2794 10.0149C12.2794 10.0114 12.2964 9.96143 12.3169 9.90393C12.3374 9.84643 12.3739 9.76093 12.3974 9.71343L12.4404 9.62793L12.5349 9.53393L12.6294 9.43993L12.7224 9.39543C12.7734 9.37093 12.8414 9.34443 12.8729 9.33643C12.9044 9.32843 12.9944 9.31743 13.0734 9.31243L13.2164 9.30343L13.3264 9.31743L13.4364 9.33143L13.5164 9.36793L13.5964 9.40443L13.6404 9.45193C13.6644 9.47793 13.6934 9.51643 13.7044 9.53693L13.7244 9.57493L13.7374 9.65893L13.7504 9.74293L13.7354 9.88243L13.7204 10.0219H12.9999V10.0214ZM12.7304 12.0379L12.8879 12.0399L13.0454 12.0254C13.1319 12.0174 13.2739 12.0009 13.3604 11.9889C13.4469 11.9769 13.5964 11.9494 13.6929 11.9284L13.8679 11.8899L13.8764 11.8254C13.8814 11.7899 13.9009 11.6844 13.9199 11.5909L13.9549 11.4209L13.9474 11.4134L13.9399 11.4059L13.8864 11.4319C13.8569 11.4459 13.7654 11.4799 13.6829 11.5074L13.5329 11.5569L13.3754 11.5874L13.2179 11.6179L12.9674 11.6184L12.7169 11.6189L12.6309 11.5914C12.5839 11.5764 12.5144 11.5489 12.4764 11.5299L12.4079 11.4959L12.3514 11.4449L12.2949 11.3939L12.2509 11.3169L12.2069 11.2399L12.1794 11.1434L12.1519 11.0469V10.8679V10.6889L12.1764 10.5294L12.2009 10.3699L12.4164 10.3599L12.6319 10.3499L13.4284 10.3549L14.2249 10.3599L14.2489 10.2579C14.2619 10.2019 14.2824 10.0859 14.2939 10.0004L14.3149 9.84493L14.3154 9.71393L14.3159 9.58293L14.2934 9.48493L14.2709 9.38693L14.2334 9.32243C14.2129 9.28693 14.1764 9.23543 14.1529 9.20793C14.1289 9.18043 14.0864 9.14193 14.0584 9.12193C14.0304 9.10193 13.9749 9.06893 13.9359 9.04793L13.8644 9.00993L13.7394 8.97993L13.6144 8.94993L13.4604 8.93543L13.3064 8.92093L13.1634 8.93043L13.0204 8.93993L12.8484 8.97293L12.6764 9.00593L12.5689 9.04893C12.5099 9.07243 12.4199 9.11543 12.3684 9.14443C12.3174 9.17343 12.2464 9.22043 12.2109 9.24943C12.1754 9.27793 12.1139 9.33393 12.0744 9.37343C12.0349 9.41293 11.9764 9.48393 11.9444 9.53093C11.9124 9.57793 11.8634 9.66193 11.8354 9.71693C11.8074 9.77193 11.7709 9.84943 11.7544 9.88893C11.7379 9.92843 11.7079 10.0089 11.6874 10.0679C11.6674 10.1269 11.6354 10.2399 11.6169 10.3184C11.5984 10.3969 11.5729 10.5269 11.5604 10.6064L11.5374 10.7514V10.9644V11.1774L11.5594 11.2704C11.5714 11.3214 11.5944 11.3989 11.6104 11.4424C11.6264 11.4859 11.6559 11.5499 11.6759 11.5854C11.6959 11.6209 11.7389 11.6779 11.7714 11.7124C11.8039 11.7469 11.8624 11.7989 11.9019 11.8279C11.9414 11.8574 12.0114 11.8984 12.0574 11.9194L12.1414 11.9579L12.2589 11.9864C12.3234 12.0019 12.4209 12.0204 12.4754 12.0274C12.5284 12.0304 12.6439 12.0369 12.7304 12.0379ZM9.75794 11.6444L9.63844 11.6514L9.56044 11.6374L9.48244 11.6234L9.40294 11.5874L9.32344 11.5514L9.26794 11.4984L9.21244 11.4454L9.18044 11.3739C9.16294 11.3344 9.14044 11.2679 9.13044 11.2254L9.11244 11.1484L9.11994 11.0249L9.12744 10.9014L9.16444 10.7079C9.18494 10.6014 9.22094 10.4019 9.24544 10.2639C9.26944 10.1259 9.30644 9.92443 9.32694 9.81543L9.36444 9.61743L9.44644 9.54893C9.49144 9.51143 9.56294 9.46093 9.60544 9.43693L9.68244 9.39343L9.78244 9.36243L9.88244 9.33143L10.0114 9.32393L10.1404 9.31643L10.2454 9.33893L10.3504 9.36143L10.4244 9.39543L10.4984 9.42943L10.5604 9.49193L10.6224 9.55443L10.6559 9.62043C10.6744 9.65693 10.7004 9.72793 10.7134 9.77843L10.7374 9.87043L10.7299 10.1424L10.7224 10.4144L10.6854 10.5754C10.6654 10.6639 10.6269 10.7989 10.5999 10.8759L10.5509 11.0159L10.4914 11.1289C10.4584 11.1914 10.4079 11.2754 10.3789 11.3159C10.3499 11.3564 10.3034 11.4089 10.2759 11.4329C10.2484 11.4569 10.2024 11.4934 10.1734 11.5149L10.1209 11.5539L9.99944 11.5954L9.87794 11.6369L9.75794 11.6444ZM8.43244 13.2994H8.74044L8.74894 13.2769C8.75394 13.2644 8.75744 13.2354 8.75744 13.2119C8.75744 13.1884 8.76744 13.1039 8.77994 13.0234C8.79244 12.9429 8.82144 12.7579 8.84444 12.6124C8.86744 12.4669 8.90244 12.2479 8.92144 12.1259C8.94044 12.0039 8.96394 11.8474 8.97344 11.7789C8.98294 11.7099 8.99444 11.6534 8.99894 11.6534C9.00344 11.6534 9.02344 11.6839 9.04294 11.7209L9.07894 11.7884L9.15844 11.8684L9.23794 11.9484L9.33544 11.9874L9.43294 12.0264L9.54944 12.0414L9.66594 12.0564L9.81394 12.0474L9.96194 12.0384L10.1219 11.9969L10.2819 11.9554L10.3679 11.9164C10.4149 11.8949 10.4989 11.8479 10.5539 11.8119L10.6539 11.7464L10.7474 11.6529C10.7989 11.6014 10.8714 11.5194 10.9084 11.4699C10.9454 11.4204 10.9759 11.3769 10.9759 11.3724C10.9759 11.3679 10.9944 11.3374 11.0164 11.3044C11.0384 11.2714 11.0844 11.1799 11.1179 11.1014C11.1514 11.0229 11.2039 10.8809 11.2344 10.7864L11.2899 10.6144L11.3184 10.4654C11.3344 10.3834 11.3544 10.2484 11.3634 10.1649L11.3799 10.0129L11.3704 9.88393L11.3609 9.75493L11.3309 9.62593L11.3009 9.49693L11.2524 9.40043L11.2039 9.30393L11.1099 9.20493L11.0164 9.10593L10.9059 9.04893L10.7954 8.99193L10.6739 8.96293L10.5524 8.93393L10.4309 8.92493L10.3094 8.91593L10.1739 8.93143L10.0384 8.94693L9.92794 8.97493L9.81744 9.00343L9.72144 9.04793C9.66844 9.07243 9.59144 9.11393 9.55044 9.14043C9.50944 9.16693 9.46694 9.19693 9.45594 9.20793C9.44544 9.21843 9.41944 9.23843 9.39894 9.25193L9.36144 9.27643L9.38794 9.15093C9.40244 9.08193 9.41444 9.01693 9.41494 9.00743L9.41544 8.98943H9.15294H8.89044L8.84444 9.27943C8.81894 9.43893 8.77894 9.68543 8.75544 9.82693C8.73194 9.96843 8.69644 10.1814 8.67644 10.2994C8.65644 10.4174 8.62144 10.6269 8.59794 10.7649C8.57444 10.9029 8.53594 11.1219 8.51194 11.2514C8.48794 11.3814 8.45294 11.5714 8.43394 11.6739C8.41494 11.7764 8.37944 11.9694 8.35494 12.1034C8.33044 12.2374 8.29094 12.4499 8.26744 12.5759C8.24394 12.7019 8.20544 12.9014 8.18194 13.0199C8.15844 13.1384 8.13594 13.2489 8.13144 13.2669L8.12344 13.2989L8.43244 13.2994Z" fill="white"/>
</svg>
