<svg width="25" height="25" viewBox="0 0 25 25" fill="none" xmlns="http://www.w3.org/2000/svg">
<path d="M22.9219 14.467L24.9737 5.43919C25.1218 4.78737 24.6263 4.16666 23.9579 4.16666H6.91007L6.51224 2.22178C6.41311 1.73702 5.98655 1.38889 5.49171 1.38889H1.04167C0.466363 1.38889 0 1.85525 0 2.43055V3.125C0 3.7003 0.466363 4.16666 1.04167 4.16666H4.07478L7.12374 19.0727C6.39431 19.4922 5.90278 20.2787 5.90278 21.1806C5.90278 22.5229 6.99097 23.6111 8.33333 23.6111C9.67569 23.6111 10.7639 22.5229 10.7639 21.1806C10.7639 20.5003 10.4841 19.8856 10.0337 19.4444H19.1329C18.6826 19.8856 18.4028 20.5003 18.4028 21.1806C18.4028 22.5229 19.491 23.6111 20.8333 23.6111C22.1757 23.6111 23.2639 22.5229 23.2639 21.1806C23.2639 20.2182 22.7045 19.3866 21.8933 18.9928L22.1327 17.9392C22.2809 17.2874 21.7854 16.6667 21.117 16.6667H9.46688L9.18281 15.2778H21.9061C22.3925 15.2778 22.8141 14.9412 22.9219 14.467Z" fill="black"/>
</svg>
