<svg width="47" height="47" viewBox="0 0 47 47" fill="none" xmlns="http://www.w3.org/2000/svg">
<circle cx="23.5" cy="23.5" r="23.5" fill="#7A7A7A"/>
<path d="M12.639 29H11.281V18.969H12.639V29ZM25.6418 18.969V29H24.4518V21.629C24.4518 21.531 24.4542 21.426 24.4588 21.314C24.4682 21.202 24.4775 21.0877 24.4868 20.971L21.0428 27.243C20.9355 27.453 20.7722 27.558 20.5528 27.558H20.3568C20.1375 27.558 19.9742 27.453 19.8668 27.243L16.3528 20.943C16.3808 21.1903 16.3948 21.419 16.3948 21.629V29H15.2048V18.969H16.2058C16.3272 18.969 16.4205 18.9807 16.4858 19.004C16.5512 19.0273 16.6142 19.0927 16.6748 19.2L20.1398 25.374C20.1958 25.486 20.2495 25.6027 20.3008 25.724C20.3568 25.8453 20.4082 25.969 20.4548 26.095C20.5015 25.969 20.5505 25.8453 20.6018 25.724C20.6532 25.598 20.7092 25.479 20.7698 25.367L24.1718 19.2C24.2278 19.0927 24.2885 19.0273 24.3538 19.004C24.4238 18.9807 24.5195 18.969 24.6408 18.969H25.6418ZM36.3548 24.177V28.027C35.8508 28.391 35.3118 28.664 34.7378 28.846C34.1684 29.0233 33.5431 29.112 32.8618 29.112C32.0544 29.112 31.3264 28.9883 30.6778 28.741C30.0291 28.489 29.4738 28.139 29.0118 27.691C28.5544 27.2383 28.2021 26.697 27.9548 26.067C27.7074 25.437 27.5838 24.744 27.5838 23.988C27.5838 23.2227 27.7028 22.525 27.9408 21.895C28.1834 21.265 28.5264 20.726 28.9698 20.278C29.4131 19.8253 29.9521 19.4753 30.5868 19.228C31.2214 18.9807 31.9308 18.857 32.7148 18.857C33.1114 18.857 33.4801 18.8873 33.8208 18.948C34.1614 19.004 34.4764 19.088 34.7658 19.2C35.0551 19.3073 35.3234 19.4403 35.5708 19.599C35.8181 19.753 36.0491 19.928 36.2638 20.124L35.8788 20.74C35.8181 20.8333 35.7388 20.894 35.6408 20.922C35.5474 20.9453 35.4424 20.922 35.3258 20.852C35.2138 20.7867 35.0854 20.7073 34.9408 20.614C34.7961 20.5207 34.6188 20.432 34.4088 20.348C34.2034 20.2593 33.9584 20.1847 33.6738 20.124C33.3938 20.0633 33.0601 20.033 32.6728 20.033C32.1081 20.033 31.5971 20.1263 31.1398 20.313C30.6824 20.495 30.2928 20.7587 29.9708 21.104C29.6488 21.4447 29.4014 21.86 29.2288 22.35C29.0561 22.8353 28.9698 23.3813 28.9698 23.988C28.9698 24.618 29.0584 25.1827 29.2358 25.682C29.4178 26.1767 29.6744 26.599 30.0058 26.949C30.3418 27.2943 30.7478 27.558 31.2238 27.74C31.6998 27.922 32.2341 28.013 32.8268 28.013C33.2934 28.013 33.7064 27.9617 34.0658 27.859C34.4298 27.7517 34.7844 27.6047 35.1298 27.418V25.213H33.5688C33.4801 25.213 33.4078 25.1873 33.3518 25.136C33.3004 25.0847 33.2748 25.0217 33.2748 24.947V24.177H36.3548Z" fill="white"/>
</svg>
