<svg width="30" height="20" viewBox="0 0 30 20" fill="none" xmlns="http://www.w3.org/2000/svg">
<path fill-rule="evenodd" clip-rule="evenodd" d="M30 17.5C30 18.875 28.875 20 27.5 20H2.5C1.125 20 0 18.875 0 17.5V2.5C0 1.125 1.125 0 2.5 0H27.5C28.875 0 30 1.125 30 2.5V17.5Z" fill="#F5F5F5"/>
<path d="M27.5 0H2.5C1.125 0 0 1.125 0 2.5V17.5C0 18.875 1.125 20 2.5 20H27.5C28.875 20 30 18.875 30 17.5V2.5C30 1.125 28.875 0 27.5 0ZM27.5 0.5C28.603 0.5 29.5 1.397 29.5 2.5V17.5C29.5 18.603 28.603 19.5 27.5 19.5H2.5C1.397 19.5 0.5 18.603 0.5 17.5V2.5C0.5 1.397 1.397 0.5 2.5 0.5H27.5Z" fill="#D0D0D0"/>
<path d="M17.6349 14.3055C20.0095 14.3055 21.9344 12.3806 21.9344 10.006C21.9344 7.63149 20.0095 5.70654 17.6349 5.70654C15.2604 5.70654 13.3354 7.63149 13.3354 10.006C13.3354 12.3806 15.2604 14.3055 17.6349 14.3055Z" fill="#F79E1B"/>
<path d="M12.3649 14.2936C14.7395 14.2936 16.6644 12.3686 16.6644 9.99408C16.6644 7.61953 14.7395 5.69458 12.3649 5.69458C9.99038 5.69458 8.06543 7.61953 8.06543 9.99408C8.06543 12.3686 9.99038 14.2936 12.3649 14.2936Z" fill="#EB001B"/>
<path fill-rule="evenodd" clip-rule="evenodd" d="M13.3355 9.99653C13.3325 11.3785 13.981 12.6095 14.992 13.3985C16.007 12.614 16.6615 11.3865 16.665 10.005C16.668 8.62303 16.0195 7.39203 15.0085 6.60303C13.993 7.38653 13.3385 8.61453 13.3355 9.99653Z" fill="#FF5F00"/>
</svg>
