<svg width="25" height="25" viewBox="0 0 25 25" fill="none" xmlns="http://www.w3.org/2000/svg">
<path d="M20.3125 21.875H16.2109C15.8887 21.875 15.625 21.6113 15.625 21.2891V19.3359C15.625 19.0137 15.8887 18.75 16.2109 18.75H20.3125C21.1768 18.75 21.875 18.0518 21.875 17.1875V7.8125C21.875 6.94824 21.1768 6.25 20.3125 6.25H16.2109C15.8887 6.25 15.625 5.98633 15.625 5.66406V3.71094C15.625 3.38867 15.8887 3.125 16.2109 3.125H20.3125C22.9004 3.125 25 5.22461 25 7.8125V17.1875C25 19.7754 22.9004 21.875 20.3125 21.875ZM18.0176 12.0605L9.81445 3.85742C9.08203 3.125 7.8125 3.6377 7.8125 4.6875V9.375H1.17188C0.522461 9.375 0 9.89746 0 10.5469V15.2344C0 15.8838 0.522461 16.4062 1.17188 16.4062H7.8125V21.0938C7.8125 22.1436 9.08203 22.6562 9.81445 21.9238L18.0176 13.7207C18.4717 13.2617 18.4717 12.5195 18.0176 12.0605Z" fill="black"/>
</svg>
