<svg width="26" height="26" viewBox="0 0 26 26" fill="none" xmlns="http://www.w3.org/2000/svg">
<path d="M13 13C16.5902 13 19.5 10.0902 19.5 6.5C19.5 2.90977 16.5902 0 13 0C9.40977 0 6.5 2.90977 6.5 6.5C6.5 10.0902 9.40977 13 13 13ZM17.55 14.625H16.702C15.5746 15.143 14.3203 15.4375 13 15.4375C11.6797 15.4375 10.4305 15.143 9.29805 14.625H8.45C4.68203 14.625 1.625 17.682 1.625 21.45V23.5625C1.625 24.9082 2.7168 26 4.0625 26H21.9375C23.2832 26 24.375 24.9082 24.375 23.5625V21.45C24.375 17.682 21.318 14.625 17.55 14.625Z" fill="black"/>
</svg>
