<svg width="36" height="36" viewBox="0 0 36 36" fill="none" xmlns="http://www.w3.org/2000/svg">
<circle cx="18" cy="18" r="18" fill="#C4C4C4"/>
<path d="M18.5 18.4375C20.8291 18.4375 22.7188 16.5479 22.7188 14.2188C22.7188 11.8896 20.8291 10 18.5 10C16.1709 10 14.2812 11.8896 14.2812 14.2188C14.2812 16.5479 16.1709 18.4375 18.5 18.4375ZM22.25 19.375H20.6357C19.9854 19.6738 19.2617 19.8438 18.5 19.8438C17.7383 19.8438 17.0176 19.6738 16.3643 19.375H14.75C12.6787 19.375 11 21.0537 11 23.125V23.5938C11 24.3701 11.6299 25 12.4062 25H24.5938C25.3701 25 26 24.3701 26 23.5938V23.125C26 21.0537 24.3213 19.375 22.25 19.375Z" fill="black"/>
</svg>
