<svg width="30" height="20" viewBox="0 0 30 20" fill="none" xmlns="http://www.w3.org/2000/svg">
<path fill-rule="evenodd" clip-rule="evenodd" d="M30 17.5C30 18.875 28.875 20 27.5 20H2.5C1.125 20 0 18.875 0 17.5V2.5C0 1.125 1.125 0 2.5 0H27.5C28.875 0 30 1.125 30 2.5V17.5Z" fill="#152884"/>
<path d="M21.3736 10.7799C21.2351 10.1174 21.0996 9.46639 20.9636 8.81539C20.9571 8.81489 20.9506 8.81439 20.9441 8.81339C20.7076 9.46589 20.4711 10.1184 20.2311 10.7794C20.6181 10.7799 20.9871 10.7799 21.3736 10.7799ZM18.0991 12.6679C18.1811 12.4704 18.2621 12.2759 18.3436 12.0814C18.9461 10.6419 19.5491 9.20239 20.1516 7.76239C20.2691 7.48139 20.4781 7.33839 20.7851 7.33939C21.1366 7.34089 21.4876 7.34089 21.8391 7.33839C21.9061 7.33789 21.9361 7.35189 21.9516 7.42589C22.3071 9.13989 22.6661 10.8529 23.0246 12.5659C23.0316 12.5994 23.0356 12.6339 23.0416 12.6724C22.6176 12.6724 22.1976 12.6724 21.7701 12.6724C21.7221 12.4419 21.6706 12.2149 21.6291 11.9854C21.6136 11.8994 21.5796 11.8759 21.4936 11.8764C20.9716 11.8809 20.4491 11.8799 19.9271 11.8769C19.8551 11.8764 19.8216 11.8989 19.7986 11.9674C19.7261 12.1829 19.6481 12.3964 19.5666 12.6089C19.5556 12.6379 19.5126 12.6734 19.4841 12.6734C19.0346 12.6774 18.5851 12.6759 18.1356 12.6754C18.1266 12.6759 18.1176 12.6719 18.0991 12.6679Z" fill="white"/>
<path fill-rule="evenodd" clip-rule="evenodd" d="M18.4181 7.48201C18.3381 7.85601 18.2586 8.22551 18.1791 8.59801C18.0276 8.54751 17.8836 8.49251 17.7356 8.45151C17.4091 8.36101 17.0761 8.32201 16.7411 8.38701C16.6206 8.41051 16.4966 8.46151 16.3961 8.53151C16.1736 8.68601 16.1666 8.94101 16.3831 9.10451C16.5486 9.22951 16.7356 9.32551 16.9136 9.43351C17.1351 9.56751 17.3691 9.68401 17.5771 9.83651C18.1061 10.2245 18.2821 10.7635 18.1026 11.395C17.9336 11.9895 17.5161 12.346 16.9596 12.5605C16.4496 12.757 15.9181 12.785 15.3806 12.7415C15.0426 12.714 14.7101 12.655 14.3886 12.543C14.3356 12.5245 14.2836 12.503 14.2241 12.48C14.3076 12.088 14.3901 11.7035 14.4701 11.327C14.6986 11.4075 14.9176 11.4995 15.1446 11.5615C15.4831 11.6535 15.8316 11.687 16.1771 11.6095C16.3116 11.5795 16.4491 11.518 16.5601 11.437C16.7676 11.285 16.7831 11.005 16.5891 10.836C16.4431 10.709 16.2691 10.613 16.1031 10.5105C15.8536 10.3565 15.5851 10.229 15.3511 10.0545C14.5701 9.47201 14.7096 8.59201 15.1151 8.06501C15.4161 7.67401 15.8291 7.45751 16.2976 7.34151C16.9886 7.17051 17.6706 7.21951 18.3416 7.45101C18.3661 7.46001 18.3886 7.47001 18.4181 7.48201Z" fill="white"/>
<path fill-rule="evenodd" clip-rule="evenodd" d="M14.4125 7.3479C14.376 7.5229 14.341 7.6949 14.304 7.8664C13.9705 9.4259 13.6355 10.9854 13.3055 12.5454C13.284 12.6469 13.2495 12.6814 13.1425 12.6789C12.766 12.6714 12.3895 12.6759 12.013 12.6759C11.9785 12.6759 11.9445 12.6759 11.896 12.6759C11.9315 12.5089 11.9645 12.3524 11.998 12.1964C12.339 10.6029 12.6805 9.0094 13.0205 7.4154C13.031 7.3659 13.042 7.3374 13.102 7.3374C13.523 7.3399 13.9435 7.3389 14.3645 7.3394C14.3765 7.3404 14.3885 7.3439 14.4125 7.3479Z" fill="white"/>
<path fill-rule="evenodd" clip-rule="evenodd" d="M5.98702 7.33942H6.08952C6.82052 7.33942 7.55152 7.33892 8.28252 7.33942C8.66852 7.33942 8.90502 7.53642 8.97652 7.91442C9.16552 8.91392 9.35452 9.91342 9.54352 10.9129C9.54452 10.9189 9.54752 10.9249 9.55702 10.9509C9.57752 10.9059 9.59302 10.8754 9.60552 10.8434C10.0555 9.70692 10.506 8.57042 10.9525 7.43292C10.982 7.35742 11.0195 7.33642 11.0965 7.33692C11.508 7.34042 11.9195 7.33842 12.3305 7.33842H12.438C12.4175 7.39192 12.402 7.43542 12.384 7.47792C11.67 9.18242 10.9555 10.8864 10.2425 12.5914C10.2175 12.6514 10.1895 12.6779 10.1195 12.6769C9.68902 12.6734 9.25852 12.6734 8.82852 12.6769C8.76102 12.6774 8.73802 12.6559 8.72152 12.5919C8.35952 11.1849 7.99352 9.77892 7.63252 8.37142C7.57802 8.15992 7.46252 8.01342 7.26502 7.91942C6.86902 7.73042 6.45102 7.61042 6.02652 7.50842C6.00552 7.50342 5.98502 7.49692 5.95752 7.48942C5.96252 7.46242 5.96652 7.43842 5.97102 7.41442C5.97602 7.39392 5.98052 7.37242 5.98702 7.33942Z" fill="white"/>
</svg>
